# xmcd
#
# Track frame offsets:
#	150
#	24857
#	40140
#	53650
#	70657
#	93822
#	109692
#	133170
#	159127
#	176335
#	193495
#	218415
#	245487
#	259327
#	272600
#	285092
#	301572
#	315660
#
# Disc length: 4406 seconds
#
# Revision: 0
# Processed by: cddbd v1.5.2PL0 Copyright (c) Steve Scherf et al.
# Submitted via: EZCDAudioConverter 2.1.7.1
#
DISCID=e3113412
DTITLE=David Bowie - Sound and Vision 2/4
DYEAR=1900
DGENRE=
TTITLE0=1984/Dodo
TTITLE1=Big Brother
TTITLE2=Rebel Rebel [US Single]
TTITLE3=Suffragette City [Live '74]
TTITLE4=Watch That Man [Live '74]
TTITLE5=Cracked Actor [Live '74]
TTITLE6=Young Americans
TTITLE7=Fascination
TTITLE8=After Today [Young Americans Outtake]
TTITLE9=It's Hard To Be A Saint In The City [Station To Station Outtake]
TTITLE10=TVC15
TTITLE11=Wild Is The Wind
TTITLE12=Sound And Vision
TTITLE13=Be My Wife
TTITLE14=Speed Of Life
TTITLE15='Helden' [German Version Of ''Heroes'' ─ '89 Remix]
TTITLE16=Joe The Lion
TTITLE17=Sons Of The Silent Age
EXTD=
EXTT0=
EXTT1=
EXTT2=
EXTT3=
EXTT4=
EXTT5=
EXTT6=
EXTT7=
EXTT8=
EXTT9=
EXTT10=
EXTT11=
EXTT12=
EXTT13=
EXTT14=
EXTT15=
EXTT16=
EXTT17=
PLAYORDER=
